# xmcd
#
# Track frame offsets:
#        150
#        12346
#        27348
#        46073
#        62680
#        79089
#        96129
#        110933
#        128728
#        144706
#        162794
#        180123
#        196226
#        212572
#        225590
#
# Disc length: 3215 seconds
#
# Revision: 0
# Processed by: cddbd v1.5.2PL0 Copyright (c) Steve Scherf et al.
# Submitted via: CDGFix 3.8
#
DISCID=bf0c8d0f
DTITLE=Various Artist - CB80131
DYEAR=1900
DGENRE=Karaoke
TTITLE0=Garth Brooks - Two Of A Kind (Working On A Full House)
TTITLE1=Alan Jackson - I'd Love You All Over Again
TTITLE2=Trisha Yearwood - She's In Love With The Boy
TTITLE3=Paul Overtsreet - Daddy's Come Around
TTITLE4=Alabama - Forever's As Far As I Go
TTITLE5=Reba McEntire - For My Broken Heart
TTITLE6=Mark Chesnutt - Brother Jukebox
TTITLE7=Travis Tritt - Anymore
TTITLE8=Dolly Parton and Ricky Van Shelton - Rockin' Years
TTITLE9=Garth Brooks - Unanswered Prayers
TTITLE10=Clint Black - Loving Blind
TTITLE11=Tanya Tucker - Down To My Last Teardrop
TTITLE12=Alabama - Down Home
TTITLE13=George Strait - If I Know Me
TTITLE14=Mary Chapin Carpenter - Down At The Twist And Shout
EXTD=
EXTT0=
EXTT1=
EXTT2=
EXTT3=
EXTT4=
EXTT5=
EXTT6=
EXTT7=
EXTT8=
EXTT9=
EXTT10=
EXTT11=
EXTT12=
EXTT13=
EXTT14=
PLAYORDER=
